<svg width="32" height="32" fill="none" xmlns="http://www.w3.org/2000/svg"><path d="M15.999 9.836a6.166 6.166 0 100 12.331 6.166 6.166 0 000-12.331zm0 10.17a4.005 4.005 0 110-8.011 4.005 4.005 0 010 8.01zm6.409-8.959a1.437 1.437 0 100-2.875 1.437 1.437 0 000 2.875z" fill="#fff"/><path d="M27.377 8.148a6.14 6.14 0 00-3.51-3.51 8.808 8.808 0 00-2.915-.56c-1.284-.055-1.69-.071-4.947-.071-3.256 0-3.673 0-4.946.072-.996.02-1.98.208-2.912.56a6.133 6.133 0 00-3.511 3.509 8.78 8.78 0 00-.559 2.915c-.057 1.282-.074 1.689-.074 4.946 0 3.256 0 3.671.074 4.947a8.79 8.79 0 00.559 2.916 6.146 6.146 0 003.512 3.51c.93.364 1.915.566 2.913.6 1.284.055 1.691.073 4.947.073 3.256 0 3.673 0 4.947-.074a8.82 8.82 0 002.914-.558 6.151 6.151 0 003.511-3.511c.35-.933.539-1.917.559-2.915.057-1.282.074-1.689.074-4.946 0-3.258 0-3.671-.074-4.947a8.774 8.774 0 00-.562-2.956zm-1.624 12.71a6.725 6.725 0 01-.414 2.25 3.982 3.982 0 01-2.283 2.281 6.646 6.646 0 01-2.227.415c-1.266.059-1.624.073-4.872.073-3.25 0-3.582 0-4.873-.073a6.613 6.613 0 01-2.225-.415 3.98 3.98 0 01-2.292-2.281 6.773 6.773 0 01-.415-2.225c-.057-1.267-.07-1.624-.07-4.872 0-3.25 0-3.582.07-4.874a6.717 6.717 0 01.415-2.249 3.982 3.982 0 012.292-2.283 6.68 6.68 0 012.225-.414c1.268-.058 1.624-.074 4.873-.074 3.25 0 3.583 0 4.872.074.76.009 1.514.15 2.227.414a3.988 3.988 0 012.283 2.283c.262.713.402 1.466.414 2.225.058 1.268.072 1.624.072 4.874 0 3.248 0 3.597-.057 4.872h-.015v-.002z" fill="#fff"/></svg>